<svg width="150" height="150" viewBox="-1 -3 150 150" fill="none" xmlns="http://www.w3.org/2000/svg">
<path d="M145.063 72C145.063 32.8465 113.216 0.999981 74.063 0.999981C34.9095 0.999981 3.06296 32.8465 3.06296 72C3.06296 111.153 34.9095 143 74.063 143C113.216 143 145.063 111.153 145.063 72Z" stroke="#292929" stroke-opacity="0.5" stroke-width="2"/>
<path d="M74.0629 9.67064C108.434 9.67064 136.392 37.6287 136.392 72C136.392 106.371 108.434 134.329 74.0629 134.329C39.6916 134.329 11.7335 106.371 11.7335 72C11.7335 37.6287 39.6916 9.67064 74.0629 9.67064Z" fill="#242424" fill-opacity="0.5"/>
<path d="M74.0629 9.67069C108.496 9.67069 136.504 37.6288 136.504 72C136.504 106.371 108.496 134.329 74.0629 134.329C39.6298 134.329 11.6214 106.371 11.6214 72C11.6214 37.6288 39.6298 9.67069 74.0629 9.67069ZM74.0629 2.12578C35.4054 2.12578 4.0629 33.412 4.0629 72C4.0629 110.588 35.4054 141.874 74.0629 141.874C112.72 141.874 144.063 110.588 144.063 72C144.071 33.412 112.729 2.12578 74.0629 2.12578Z" fill="#373737" fill-opacity="0.5"/>
<g filter="url(#filter0_d)">
<path d="M74.0673 141.966C35.4877 141.966 4.10083 110.58 4.10083 72C4.10083 33.4203 35.4877 2.0335 74.0673 2.0335C76.0457 2.0335 77.6469 3.6347 77.6469 5.61314C77.6469 7.59158 76.0457 9.19278 74.0673 9.19278C39.4362 9.19278 11.2685 37.3604 11.2685 71.9916C11.2685 106.623 39.4362 134.79 74.0673 134.79C108.698 134.79 136.866 106.623 136.866 71.9916C136.866 70.0131 138.467 68.4119 140.446 68.4119C142.424 68.4119 144.025 70.0131 144.025 71.9916C144.034 110.58 112.647 141.966 74.0673 141.966Z" fill="url(#paint0_radial)"/>
</g>
<defs>
<filter id="filter0_d" x="0.10083" y="2.0335" width="147.925" height="147.933" filterUnits="userSpaceOnUse" color-interpolation-filters="sRGB">
<feFlood flood-opacity="0" result="BackgroundImageFix"/>
<feColorMatrix in="SourceAlpha" type="matrix" values="0 0 0 0 0 0 0 0 0 0 0 0 0 0 0 0 0 0 127 0"/>
<feOffset dy="4"/>
<feGaussianBlur stdDeviation="2"/>
<feColorMatrix type="matrix" values="0 0 0 0 0 0 0 0 0 0 0 0 0 0 0 0 0 0 0.25 0"/>
<feBlend mode="normal" in2="BackgroundImageFix" result="effect1_dropShadow"/>
<feBlend mode="normal" in="SourceGraphic" in2="effect1_dropShadow" result="shape"/>
</filter>
<radialGradient id="paint0_radial" cx="0" cy="0" r="1" gradientUnits="userSpaceOnUse" gradientTransform="translate(43.0829 31.794) rotate(35.9506) scale(114.949 114.942)">
<stop offset="0.387096" stop-color="#FFFDFD"/>
<stop offset="0.852779" stop-color="#FFFDFD" stop-opacity="0"/>
</radialGradient>
</defs>
</svg>
